<svg xmlns="http://www.w3.org/2000/svg"
     viewBox="0 0 642 512">
  <path d="m523 376c3.56-0.685 6.93-1.82 10.3-2.96 18.4 15.3 28.5 9.57 24.3-13.8 2.65-2.27 5.13-4.74 7.41-7.38 23.8 4.19 29.5-5.74 14-23.9 1.18-3.33 2.33-6.62 3-10.2 22.3-8.11 22.3-19.4-0.0494-27.5-0.644-3.51-1.78-6.83-2.95-10.2 15.5-18.2 9.7-28.1-14-24-2.33-2.59-4.8-5.06-7.43-7.34 4.2-23.4-5.84-29.1-24.3-13.8-3.37-1.14-6.69-2.26-10.3-2.92-8.22-22.1-19.7-22.1-27.9 0-3.53 0.658-6.93 1.78-10.3 2.92-18.4-15.3-28.5-9.58-24.2 13.8-2.68 2.32-5.17 4.74-7.48 7.36-23.7-4.16-29.5 5.76-14 23.9-1.15 3.35-2.3 6.65-2.95 10.2-22.3 8.11-22.3 19.5 0 27.5 0.671 3.51 1.8 6.83 2.95 10.2-15.5 18.2-9.69 28.1 14 23.9 2.33 2.64 4.8 5.06 7.43 7.33-4.2 23.4 5.84 29.2 24.3 13.8 3.37 1.14 6.74 2.28 10.3 2.96 8.17 22 19.7 22 27.8 0.004zm8.38 7.97c-0.368 0.138-0.713 0.251-1.08 0.344-4.57 10.1-10.4 15.7-17.3 17.3l29 110 11-38 27 28-30-111c-5.77 0.0709-12.4-2.05-19.5-7.13zm-43.5 0.344c-0.371-0.0897-0.694-0.206-1.08-0.344-8.38 5.97-16 7.79-22.3 6.61l-27.1 99.9 26.3-17.6 11.7 27.7 27.1-99.7c-5.62-2.42-10.5-7.87-14.4-16.5zm-35-162c7.25-8.49 19.7-9.01 33.4 0.318 11.5-23.7 33.2-23.7 44.7-0.0223 13.6-9.33 26.1-8.81 33.4-0.295 4.41 5.17 6.16 12.5 5.38 22.4 0.876-0.0862 1.41 0.138 2.24 0.0896v-244h-127v244c0.83 0 1.34-0.206 2.26-0.138-0.883-9.83 0.917-17.2 5.3-22.3zm131-196v31.5c16.3 6.97 27.6 22.9 27.6 41.5v277c0 23.3-18.1 42.3-41 44.8l7.96 29.4c35-7 63-38 63-75v-277c0-35-25-64.6-58-72.7zm-508 394c-25.3 0-45.9-20.3-45.9-45.2v-277c0-24.9 20.6-45.2 45.9-45.2h357v-30.2h-357c-42.1 0.3-76.4 34.2-76.4 75.7v277c0 41.6 34.3 75.4 76.4 75.4h359l8.17-30.2h-367v0.0486zm357-251h-157c-6.8 0-12.3 5.41-12.3 12.2 0 6.7 5.46 12.2 12.3 12.2h157v-24.3zm-169 67.5c0 6.74 5.46 12.2 12.3 12.2h149c1.94-1.37 4.22-2.6 7.34-3.46v-20.8h-157c-6.8 0-12.3 5.43-12.3 12.1zm-190 78c0 31 191 31 191 0 0-26.2-30.6-61.6-71.9-71.9 17.3-11.4 29.2-34 29.2-54.4 0-28.7-23.6-52-52.7-52s-52.7 23.3-52.7 52c0 20.3 11.9 43 29.1 54.4-41.2 10.3-71.8 45.7-71.8 71.9zm91.2-56.8h-0.231l-8.73-9.9c4.25 1.48 8.6 2.44 13.2 2.44 4.61 0 8.96-0.909 13.2-2.39l-8.74 9.86h-0.22l22.5 53.7-26.8 26.3-26.8-26.3 22.5-53.7z"/>
</svg>