<svg xmlns="http://www.w3.org/2000/svg"
     viewBox="0 0 512 512">
  <path d="m166 377v18.3q0 3.71-2.71 6.43-2.71 2.71-6.4 2.71h-18.3q-3.71 0-6.4-2.71-2.71-2.71-2.71-6.43v-18.3q0-3.71 2.71-6.43 2.71-2.71 6.4-2.71h18.3q3.71 0 6.4 2.71 2.71 2.71 2.71 6.43zm0-73.1v18.3q0 3.71-2.71 6.43-2.71 2.71-6.4 2.71h-18.3q-3.71 0-6.4-2.71-2.71-2.71-2.71-6.43v-18.3q0-3.71 2.71-6.43 2.71-2.71 6.4-2.71h18.3q3.71 0 6.4 2.71 2.71 2.71 2.71 6.43zm72.9 0v18.3q0 3.71-2.71 6.43-2.71 2.71-6.4 2.71h-18.3q-3.71 0-6.4-2.71-2.71-2.71-2.71-6.43v-18.3q0-3.71 2.71-6.43 2.71-2.71 6.4-2.71h18.3q3.71 0 6.4 2.71 2.71 2.71 2.71 6.43zm-72.9-73.1v18.3q0 3.71-2.71 6.43-3 3-5.98 3h-18.3q-3.71 0-6.4-2.71-2.71-2.71-2.71-6.43v-18.3q0-3.71 2.71-6.43 2.71-2.71 6.4-2.71h18.3q3.71 0 6.4 2.71 2.71 2.71 2.71 6.43zm219 146v18.3q0 3.71-2.71 6.43-2.71 2.71-6.4 2.71h-18.3q-3.71 0-6.4-2.71-2.71-2.71-2.71-6.43v-18.3q0-3.71 2.71-6.43 2.71-2.71 6.4-2.71h18.3q3.71 0 6.4 2.71 2.71 2.71 2.71 6.43zm-72.9-73.1v18.3q0 3.71-2.71 6.43-2.71 2.71-6.4 2.71h-18.3q-3.71 0-6.4-2.71-2.71-2.71-2.71-6.43v-18.3q0-3.71 2.71-6.43 2.71-2.71 6.4-2.71h18.3q3.71 0 6.4 2.71 2.71 2.71 2.71 6.43zm-72.9-73.1v18.3q0 3.71-2.71 6.43-2.71 2.71-6.4 2.71h-18.3q-3.71 0-6.4-2.71-2.71-2.71-2.71-6.43v-18.3q0-3.71 2.71-6.43 2.71-2.71 6.4-2.71h18.3q3.71 0 6.4 2.71 2.71 2.71 2.71 6.43zm-72.9-73.1v18.3q0 3.71-2.71 6.43-2.71 2.71-6.4 2.71h-18.3q-3.71 0-6.4-2.71-2.71-2.71-2.71-6.43v-18.3q0-3.71 2.71-6.43 2.71-2.71 6.4-2.71h18.3q3.71 0 6.4 2.71 2.71 2.71 2.71 6.43zm219 146v18.3q0 3.71-2.71 6.43-2.71 2.71-6.4 2.71h-18.3q-3.71 0-6.4-2.71-2.71-2.71-2.71-6.43v-18.3q0-3.71 2.71-6.43 2.71-2.71 6.4-2.71h18.3q3.71 0 6.4 2.71 2.71 2.71 2.71 6.43zm-72.9-73.1v18.3q0 3.71-2.71 6.43-2.71 2.71-6.4 2.71h-18.3q-3.71 0-6.4-2.71-2.71-2.71-2.71-6.43v-18.3q0-3.71 2.71-6.43 2.71-2.71 6.4-2.71h18.3q3.71 0 6.4 2.71 2.71 2.71 2.71 6.43zm-72.9-73.1v18.3q0 3.71-2.71 6.43-2.71 2.71-6.4 2.71h-18.3q-3.71 0-6.4-2.71-2.71-2.71-2.71-6.43v-18.3q0-3.71 2.71-6.43 2.71-2.71 6.4-2.71h18.3q3.71 0 6.4 2.71 2.71 2.71 2.71 6.43zm-72.9-73.1v18.3q0 3.71-2.71 6.43-2.71 2.71-6.4 2.71h-18.3q-3.71 0-6.4-2.71-2.71-2.71-2.71-6.43v-18.3q0-3.71 2.71-6.43 2.71-2.71 6.4-2.71h18.3q3.71 0 6.4 2.71 2.71 2.71 2.71 6.43zm219 146v18.3q0 3.71-2.71 6.43-3 3-5.98 3h-18.3q-3.71 0-6.4-2.71-2.71-2.71-2.71-6.43v-18.3q0-3.71 2.71-6.43 2.71-2.71 6.4-2.71h18.3q3.71 0 6.4 2.71 2.71 2.71 2.71 6.43zm-72.9-73.1v18.3q0 3.71-2.71 6.43-2.71 2.71-6.4 2.71h-18.3q-3.71 0-6.4-2.71-2.71-2.71-2.71-6.43v-18.3q0-3.71 2.71-6.43 2.71-2.71 6.4-2.71h18.3q3.71 0 6.4 2.71 2.71 2.71 2.71 6.43zm-72.9-73.1v18.3q0 3.71-2.71 6.43-2.71 2.71-6.4 2.71h-18.3q-3.71 0-6.4-2.71-2.71-2.71-2.71-6.43v-18.3q0-3.71 2.71-6.43 2.71-2.71 6.4-2.71h18.3q3.71 0 6.4 2.71 2.71 2.71 2.71 6.43zm146 73.1v18.3q0 3.71-2.71 6.43-2.71 2.71-6.4 2.71h-18.3q-3.71 0-6.4-2.71-2.71-2.71-2.71-6.43v-18.3q0-3.71 2.71-6.43 2.71-2.71 6.4-2.71h18.3q3.71 0 6.4 2.71 2.71 2.71 2.71 6.43zm-72.9-73.1v18.3q0 3.71-2.71 6.43-2.71 2.71-6.4 2.71h-18.3q-3.71 0-6.4-2.71-2.71-2.71-2.71-6.43v-18.3q0-3.71 2.71-6.43 2.71-2.71 6.4-2.71h18.3q3.71 0 6.4 2.71 2.71 2.71 2.71 6.43zm72.9 0v18.3q0 3.71-2.71 6.43-2.71 2.71-6.4 2.71h-18.3q-3.71 0-6.4-2.71-2.71-2.71-2.71-6.43v-18.3q0-3.71 2.71-6.43 2.71-2.71 6.4-2.71h18.3q3.71 0 6.4 2.71 2.71 2.71 2.71 6.43zm-72.9 393h110v-439h-329v439h110v-64q0-3.71 2.71-6.43 2.71-2.71 6.4-2.71h91.2q3.71 0 6.4 2.71 2.71 2.71 2.71 6.43v64zm145-460v475q0 7.43-5.4 12.9-5.98 6-13 6h-366q-7.2 0-12.6-5-5.4-6-5.4-13v-476q0-7.1 5.4-12.6 5.4-5.4 12.9-5.4h365q7.4 0 12.8 5.43 5.98 5.47 5.98 12.9z"/>
</svg>