<svg xmlns="http://www.w3.org/2000/svg"
     viewBox="0 0 512 512">
  <path d="m201 412-9.48-4.72c-2.43-1.22-4.63-2.79-6.67-4.54h-81c-5.55 0-10.1-4.52-10.1-10v-356c0-5.56 4.51-10.1 10.1-10.1h270c5.53 0 10.1 4.5 10.1 10.1v183c4.49 1.06 8.77 3.01 12.5 5.8 7.34 5.23 12.4 13.6 13.8 22.7v-211c0-20.5-16-37-37-37h-270c-19.5-1.02e-7 -36 16.5-36 36.8v356c0 20.3 16.5 36.8 36.8 36.8h79.6l17.5-17.5zm134-262h-192c-6.93 0-12.5 5.6-12.5 12.5-0.0204 6.92 5.59 12.5 12.5 12.5h192c6.91 0 12.5-5.58 12.5-12.5 0-6.9-5.65-12.5-12.5-12.5zm0-64.2h-192c-6.93 0-12.5 5.6-12.5 12.5-0.0204 6.96 5.59 12.5 12.5 12.5h192c6.91 0 12.5-5.58 12.5-12.5s-5.65-12.6-12.5-12.6zm-60.2 365-23.7 3.85c-6.63 1.02-13.1-0.57-18.3-4.4-5.2-3.75-8.75-9.61-9.73-16l-2.08-13.8-41.1 41.1c-2.04 2.04-2.79 5.05-1.96 7.82 0.877 2.79 3.2 4.81 6.02 5.38l26.1 4.87 4.89 26c0.53 2.87 2.59 5.17 5.36 6.05 2.75 0.835 5.77 0.102 7.81-1.95l53.7-53.6-3.92-3.95c-0.857-0.876-2-1.34-3.16-1.34zm168 10.7-41.1-41.1-2.08 13.8c-0.979 6.37-4.53 12.3-9.77 16-5.2 3.79-11.7 5.4-18.2 4.34l-23-3.75c-1.9-0.122-3.04 0.407-3.87 1.26l-3.92 3.93 53.7 53.6c2.08 2.08 5.08 2.81 7.85 1.98 2.77-0.876 4.81-3.18 5.38-6.05l4.83-26 26.1-4.89c2.86-0.529 5.16-2.59 6-5.38 0.857-2.79 0.0816-5.82-1.98-7.84zm-132-197c-41.6 0-75.5 33.8-75.5 75.4s33.9 75.4 75.5 75.4c41.7 0 75.5-33.8 75.5-75.4s-33.9-75.4-75.5-75.4zm62 180c3.83 0.611 7.75-0.326 10.9-2.63 3.1-2.24 5.26-5.7 5.83-9.55l3.45-22.9c0.693-4.6 3.57-8.51 7.73-10.6l20.7-10.3c3.51-1.77 6.14-4.81 7.32-8.49 1.22-3.73 0.836-7.72-0.918-11.2l-10.7-20.6c-2.1-4.03-2.1-8.94 0-13l10.7-20.6c1.75-3.46 2.12-7.45 0.918-11.2-1.2-3.71-3.83-6.72-7.32-8.49l-20.7-10.3c-4.16-2.1-7.04-6.01-7.73-10.6l-3.44-22.9c-0.571-3.85-2.73-7.29-5.83-9.53-3.14-2.32-7.06-3.26-10.9-2.63l-22.9 3.83c-4.55 0.753-9.16-0.753-12.4-4.03l-16.3-16.5c-2.75-2.75-6.44-4.3-10.4-4.3-3.85 0-7.63 1.57-10.4 4.3l-16.3 16.5c-3.24 3.3-7.87 4.79-12.4 4.03l-22.9-3.77c-3.83-0.631-7.75 0.305-10.9 2.63-3.12 2.24-5.26 5.68-5.83 9.53l-3.43 22.9c-0.714 4.6-3.57 8.51-7.73 10.6l-20.8 10.3c-3.45 1.77-6.12 4.79-7.3 8.49-1.2 3.73-0.857 7.72 0.897 11.2l10.7 20.6c2.12 4.05 2.12 8.96 0 13l-10.7 20.6c-1.75 3.46-2.1 7.45-0.897 11.2 1.2 3.69 3.83 6.72 7.3 8.49l20.8 10.3c4.16 2.1 7.02 6.01 7.73 10.6l3.43 22.9c0.571 3.83 2.71 7.29 5.83 9.55 3.14 2.3 7.06 3.24 10.9 2.63l22.9-3.77c4.55-0.794 9.18 0.733 12.4 4.01l16.3 16.5c2.75 2.81 6.49 4.36 10.4 4.36 3.9 0 7.63-1.55 10.4-4.36l16.3-16.5c3.26-3.28 7.89-4.81 12.4-4.01l22.9 3.71zm-62-16.7c-48.7 0-88.4-39.6-88.4-88.2 0-48.7 39.6-88.3 88.4-88.3 48.7 0 88.4 39.6 88.4 88.3 0 48.6-39.6 88.2-88.4 88.2z"/>
</svg>