<svg xmlns="http://www.w3.org/2000/svg"
     height="512"
     width="512"
     viewBox="0 0 512 512"
>
    <path d="m228.33 390.33 204.67-204.66q6.3333-6.3334 6.3333-15 0-8.6667-6.3333-15l-34-34q-6.3333-6.3334-15-6.3334t-15 6.3334l-155.67 155.66-70.33-70.33q-6.3333-6.3333-15-6.3333t-15 6.3333l-34 34q-6.3333 6.3333-6.3333 15t6.3333 15l119.33 119.33q6.3333 6.3334 15 6.3334t15-6.3334zm283.67-294.33v320q0 39.667-28.167 67.833-28.16 28.17-67.83 28.17h-320q-39.667 0-67.833-28.17-28.167-28.16-28.167-67.83v-320q0-39.667 28.167-67.833 28.166-28.167 67.833-28.167h320q39.67 0 67.83 28.167 28.17 28.166 28.17 67.833z"/>
</svg>