<svg xmlns="http://www.w3.org/2000/svg"
     height="512"
     width="604.73"
     viewBox="0 0 604.72729 512"
>
    <path d="m512 291.64v115.64q0 43.273-30.727 74t-74 30.727h-302.55q-43.265-0.01-73.993-30.74-30.727-30.72-30.727-74v-302.54q0-43.273 30.727-74 30.728-30.73 74.003-30.73h302.55q22.909 0 42.545 9.0909 5.4546 2.5455 6.5455 8.3636 1.0909 6.1819-3.2727 10.546l-17.818 17.818q-3.6364 3.6363-8.3636 3.6363-1.0909 0-3.2727-0.7272-8.3636-2.1818-16.364-2.1818h-302.55q-24 0-41.091 17.091t-17.091 41.091v302.55q0 24 17.091 41.091t41.091 17.091h302.55q24 0 41.091-17.091t17.091-41.091v-92.364q0-4.7273 3.2727-8l23.27-23.28q3.64-3.64 8.36-3.64 2.1818 0 4.3636 1.0909 7.28 2.91 7.28 10.55zm84-177.82-296 296q-8.7273 8.7273-20.727 8.7273t-20.727-8.7273l-156.37-156.37q-8.7273-8.7272-8.7273-20.727t8.7273-20.727l40-40q8.7273-8.7273 20.727-8.7273t20.727 8.7273l95.636 95.636 235.27-235.27q8.7273-8.7272 20.727-8.7272t20.727 8.7272l40 40q8.7273 8.7273 8.7273 20.727t-8.7273 20.727z"/>
</svg>