<svg xmlns="http://www.w3.org/2000/svg"
     viewBox="0 0 512 512">
  <path d="m341.33 256q0-35.333-25-60.333t-60.333-25-60.333 25-25 60.333 25 60.333 60.333 25 60.333-25 25-60.333zm170.67-36.33v74q0 4-2.6667 7.6666-2.6667 3.6667-6.6667 4.3334l-61.67 9.33q-6.3333 18-13 30.333 11.667 16.667 35.667 46 3.3333 4 3.3333 8.3334 0 4.3333-3 7.6666-9 12.333-33 36-24 23.67-31.33 23.67-4 0-8.6667-3l-46-36q-14.667 7.6667-30.333 12.667-5.34 45.33-9.67 62-2.33 9.33-12 9.33h-74q-4.6667 0-8.1667-2.8333-3.5-2.84-3.83-7.17l-9.3333-61.333q-16.333-5.3334-30-12.333l-47 35.667q-3.3333 3-8.3333 3-4.6667 0-8.3333-3.6667-42-38-55-56-2.3333-3.3333-2.3333-7.6666 0-4 2.6667-7.6667 5-7 17-22.167t18-23.5q-9-16.667-13.667-33l-61-9q-4.3333-0.6666-7-4.1666-2.67-3.5-2.67-7.84v-74q0-4 2.6667-7.6666 2.6666-3.66 6.3333-4.33l62-9.33q4.6667-15.333 13-30.667-13.333-19-35.667-46-3.3333-4-3.3333-8 0-3.3333 3-7.6666 8.6667-12 32.833-35.833 24.167-23.83 31.497-23.83 4.34 0 8.67 3.333l46 35.667q14.67-7.667 30.33-12.667 5.34-45.333 9.67-62 2.33-9.333 12-9.333h74q4.6667 0 8.1667 2.8333 3.5 2.8334 3.8333 7.1667l9.3333 61.333q16.333 5.3334 30 12.333l47.34-35.666q3-3 8-3 4.33 0 8.33 3.333 43 39.667 55 56.667 2.3333 2.6667 2.3333 7.3333 0 4-2.6667 7.6667-5 7-17 22.167t-18 23.5q8.6667 16.667 13.667 32.667l61 9.3334q4.3333 0.6666 7 4.1666t2.6667 7.8334z"/>
</svg>