<svg xmlns="http://www.w3.org/2000/svg"
     viewBox="0 0 558 512">
  <path d="m260.51 255.85q0-30.819-21.806-52.625t-52.625-21.806-52.625 21.806-21.806 52.625 21.806 52.625 52.625 21.806 52.625-21.806 21.806-52.625zm223.29 148.86q0-15.119-11.048-26.167t-26.167-11.048-26.167 11.048-11.048 26.167q0 15.409 10.903 26.312t26.312 10.903 26.312-10.903 10.903-26.312zm0-297.72q0-15.119-11.048-26.167t-26.167-11.048-26.167 11.048-11.048 26.167q0 15.409 10.903 26.312t26.312 10.903 26.312-10.903 10.903-26.312zm-111.65 122.4v53.788q0 2.9074-2.0352 5.6695-2.0352 2.762-4.6519 3.0528l-45.065 6.9778q-3.1982 10.176-9.3038 22.097 9.8853 13.956 26.167 33.436 2.0352 2.9074 2.0352 5.8149 0 3.4889-2.0352 5.5241-6.6871 8.7223-23.986 26.022-17.299 17.299-22.823 17.299-3.1982 0-6.1056-2.0352l-33.436-26.167q-10.758 5.5241-22.387 9.0131-3.1982 31.4-6.6871 45.065-2.0352 6.9778-8.7223 6.9778h-54.078q-3.1982 0-5.8149-2.1806-2.6167-2.1805-2.9074-5.088l-6.6871-44.484q-9.8853-2.9074-21.806-9.0131l-34.308 25.876q-2.0352 2.0352-5.8149 2.0352-3.1982 0-6.1056-2.326-41.867-38.669-41.867-46.519 0-2.6167 2.0352-5.5241 2.9074-4.0705 11.92-15.41 9.0131-11.339 13.665-17.735-6.6871-12.793-10.176-23.841l-44.181-6.98q-2.9076-0.29-4.9428-2.76t-2.0352-5.67v-53.788q0-2.9074 2.0352-5.6695t4.6519-3.0528l45.065-6.9779q3.1982-10.176 9.3038-22.096-9.8853-13.956-26.167-33.436-2.0352-3.1981-2.0352-5.8148 0-3.489 2.0352-5.8149 6.3964-8.7223 23.841-25.876t22.969-17.154q3.1982 0 6.1056 2.0352l33.436 26.167q9.8853-5.2334 22.387-9.3039 3.1982-31.4 6.6871-44.774 2.0352-6.9779 8.7223-6.9779h54.078q3.1982 0 5.8149 2.1806t2.9074 5.088l6.6871 44.484q9.8853 2.9075 21.806 9.0131l34.308-25.876q2.326-2.0352 5.8149-2.0352 3.1982 0 6.1056 2.3259 41.867 38.669 41.867 46.519 0 2.6167-2.0352 5.5241-3.4889 4.6519-12.211 15.7-8.7223 11.048-13.083 17.445 6.6871 13.956 9.8853 23.841l44.193 6.6871q2.9074 0.5815 4.9426 3.0528 2.0352 2.4714 2.0352 5.6695zm186.08 154.97v40.704q0 4.6519-43.321 9.013-3.4889 7.8501-8.7223 15.119 14.828 32.854 14.828 40.123 0 1.163-1.163 2.0352-35.47 20.65-36.05 20.65-2.326 0-13.374-13.665t-15.119-19.77q-5.8149 0.5814-8.7223 0.5814t-8.7223-0.5814q-4.0704 6.1056-15.119 19.77-11.05 13.66-13.37 13.66-0.58148 0-36.052-20.643-1.163-0.8722-1.163-2.0352 0-7.2686 14.828-40.123-5.2334-7.2686-8.7223-15.119-43.321-4.3611-43.321-9.013v-40.704q0-4.6519 43.321-9.013 3.7797-8.4316 8.7223-15.119-14.828-32.854-14.828-40.123 0-1.1629 1.163-2.0352 1.163-0.5815 10.176-5.8149 9.0131-5.2333 17.154-9.8852 8.1408-4.652 8.7223-4.652 2.326 0 13.374 13.52t15.119 19.625q5.8149-0.5815 8.7223-0.5815t8.7223 0.5815q14.828-20.643 26.748-32.563l1.7445-0.5815q1.163 0 36.052 20.352 1.163 0.8723 1.163 2.0352 0 7.2686-14.828 40.123 4.9426 6.6871 8.7223 15.119 43.321 4.3611 43.321 9.013zm0-297.72v40.704q0 4.6519-43.321 9.0131-3.4889 7.8501-8.7223 15.119 14.828 32.854 14.828 40.123 0 1.163-1.163 2.0352-35.471 20.643-36.052 20.643-2.326 0-13.374-13.665t-15.119-19.771q-5.8149 0.5815-8.7223 0.5815t-8.7223-0.5815q-4.0704 6.1056-15.119 19.771-11.048 13.665-13.374 13.665-0.58148 0-36.052-20.643-1.163-0.8722-1.163-2.0352 0-7.2686 14.828-40.123-5.2334-7.2686-8.7223-15.119-43.321-4.3612-43.321-9.0131v-40.704q0-4.6519 43.321-9.0131 3.7797-8.4316 8.7223-15.119-14.828-32.854-14.828-40.123 0-1.163 1.163-2.0352 1.163-0.5815 10.176-5.8149 9.0131-5.2334 17.154-9.8853 8.12-4.646 8.7-4.646 2.326 0 13.374 13.52t15.119 19.625q5.8149-0.5815 8.7223-0.5815t8.7223 0.5815q14.82-20.644 26.74-32.564l1.75-0.582q1.163 0 36.052 20.352 1.163 0.8722 1.163 2.0352 0 7.2686-14.828 40.123 4.9426 6.6871 8.7223 15.119 43.321 4.3612 43.321 9.0131z"/>
</svg>