<svg xmlns="http://www.w3.org/2000/svg"
     viewBox="0 0 512 512">
  <path d="m456 109q8 8 14 22 6 14 6 25v329q0 11-8 19t-19 8h-384q-11 0-19-8t-8-19v-457q0-11 8-19t19-8h256q11 0 25 6 14 6 22 14zm-127-70v107h107q-3-8-6-12l-89-89q-3-3-12-6zm110 437v-293h-119q-11 0-19-8t-8-19v-119h-219v439zm-293-247q0-4 3-7 3-3 7-3h201q4 0 7 3t3 7v18q0 4-3 7-3 3-7 3h-201q-4 0-7-3-3-3-3-7zm210 64q4 0 7 3 3 3 3 7v18q0 4-3 7-3 3-7 3h-201q-4 0-7-3-3-3-3-7v-18q0-4 3-7 3-3 7-3zm0 73q4 0 7 3t3 7v18q0 4-3 7t-7 3h-201q-4 0-7-3-3-3-3-7v-18q0-4 3-7 3-3 7-3z" />
</svg>