<svg xmlns="http://www.w3.org/2000/svg"
     viewBox="0 0 585 512">
  <path d="m353.44 443.43v-272.76h-121.88v272.76q0 9.5238 6.8555 14.667 6.8555 5.1429 17.52 5.1429h73.125q10.664 0 17.52-5.1429 6.8555-5.1428 6.8555-14.667zm-173.67-321.52h74.268l-47.988-61.333q-9.9023-11.81-26.279-11.81-15.234 0-25.898 10.667t-10.664 25.905 10.664 25.905 25.898 10.667zm262.03-36.577q0-15.238-10.664-25.905t-25.898-10.667q-16.377 0-26.279 11.81l-47.607 61.333h73.887q15.234 0 25.898-10.667t10.664-25.905zm143.2 97.527v121.9q0 5.3333-3.4277 8.7619-3.4278 3.4286-8.7598 3.4286h-36.562v158.48q0 15.238-10.664 25.905-10.67 10.66-25.9 10.66h-414.38q-15.232 0-25.896-10.67-10.664-10.66-10.664-25.9v-158.48h-36.562q-5.332 0-8.7598-3.4286-3.4282-3.42-3.4282-8.76v-121.9q0-5.3333 3.4277-8.7619 3.4277-3.4285 8.7598-3.4285h167.58q-35.42 0-60.366-24.952t-24.946-60.381q0-35.428 24.946-60.381 24.95-24.96 60.37-24.96 40.75 0 63.98 29.333l48.75 62.857 48.75-62.857q23.23-29.333 63.98-29.333 35.42 0 60.366 24.952t24.946 60.381-24.946 60.381-60.366 24.952h167.58q5.332 0 8.7598 3.4285 3.43 3.43 3.43 8.77z"/>
</svg>