<svg xmlns="http://www.w3.org/2000/svg"
     viewBox="0 0 512 512">
  <path d="m354.46 216.62q0-56.922-40.462-97.384-40.462-40.461-97.384-40.461t-97.384 40.461-40.462 97.384q0 56.922 40.462 97.384 40.462 40.461 97.384 40.461t97.384-40.461 40.462-97.384zm157.54 256q0 16-11.692 27.692-11.69 11.69-27.69 11.69-16.62 0-27.7-11.69l-105.54-105.23q-55.076 38.153-122.77 38.153-43.999 0-84.153-17.077-40.153-17.08-69.23-46.16-29.076-29.08-46.153-69.23t-17.077-84.15 17.077-84.15q17.077-40.163 46.153-69.24 29.077-29.076 69.23-46.153 40.16-17.077 84.16-17.077 43.999 0 84.153 17.077t69.23 46.153q29.077 29.077 46.153 69.23 17.077 40.153 17.077 84.153 0 67.691-38.154 122.77l105.54 105.54q11.38 11.39 11.38 27.7z"/>
</svg>