<svg xmlns="http://www.w3.org/2000/svg"
     viewBox="0 0 512 512">
  <path d="m504.03 3.4383q9.4194 6.8524 7.7096 18.275l-73.128 438.6q-1.4284 8.2807-9.1413 12.85-3.9994 2.2844-8.8556 2.2844-3.1424 0-6.8559-1.4277l-150.57-61.389-85.125 93.37q-5.14 6-13.42 6-3.9994 0-6.5704-1.1423-5.4277-1.9988-8.5699-6.7101-3.1424-4.7116-3.1424-10.423v-129.07l-134.87-55.109q-10.566-3.99-11.422-15.7-0.85831-11.14 9.1402-16.85l475.34-274.13q9.9983-5.9964 19.424 0.57108zm-97.71 428.02 63.14-377.76-409.65 236.14 95.99 39.12 246.52-182.46-136.54 227.56z"/>
</svg>