<svg xmlns="http://www.w3.org/2000/svg"
     viewBox="0 0 1075 512">
  <path fill="#005a9c"
        d="m254 2.85 92 310 91-310h247v30.8l-93 160c32.7 10.5 57.4 29.6 74.1 57.2 16.8 27.7 25.2 60.1 25.2 97.4 0 46.1-12.3 84.9-36.8 116-25 31-57 47-96 47-29.3 0-54.9-9.31-76.7-28-21.8-18.6-37.9-43.9-48.4-75.7l51.5-21.4c7.55 19.3 17.5 34.5 29.9 45.6s26.9 16.7 43.7 16.7c17.6 0 32.5-9.85 44.6-29.5 12.2-19.7 18.2-43.4 18.2-71 0-30.6-6.5-54.3-19.5-71-15.1-19.7-38.8-29.5-71-29.5h-25.1v-30.2l88-152h-106l-6.04 10.3-129 436h-6.28l-94.3-316-94.3 316h-6.28l-151-510h66l91 310 62-209-30-101h66v-0.0215z"/>
  <path d="m1.03e3 2.85c-13 0-24.6 4.67-33.4 13.6-9.35 9.5-14.6 21.8-14.6 34.5s4.96 24.5 14 33.7c9.23 9.35 21.1 14.4 33.9 14.4 12.5 0 24.7-5.08 34.2-14.3 10-8.8 20-20.6 20-33.8 0-12.8-5.08-24.9-13.9-33.8-9.14-9.38-21.2-14.3-34.3-14.3zm41.8 48.5c0 11.1-4.29 21.4-12.1 29-8.29 8.03-18.6 12.3-29.9 12.3-10.7 0-21.2-4.4-29.1-12.4-7.87-8.03-12.3-18.3-12.3-29.3s4.55-21.6 12.7-29.9c7.61-7.76 17.9-11.9 29.1-11.9 11.5 0 21.8 4.3 29.8 12.4 7.79 7.73 11.9 18.1 11.9 29.8zm-40.5-28.6h-20.6v54.5h10.3v-23.2h10.2l11.1 23.2h11.5l-12.2-24.8c7.87-1.62 12.4-6.95 12.4-14.7 0.054-9.89-7.47-15-22.7-15zm-1.88 6.69c9.62 0 14 2.68 14 9.35 0 6.4-4.41 8.69-13.8 8.69h-8.69v-18h8.44z"/>
  <path d="m946 0 10.7 65-37.8 72.4s-14.5-30.7-38.7-47.7c-20.3-14.3-33.6-17.4-54.3-13.2-26.6 5.49-56.8 37.3-69.9 76.5-15.7 46.9-15.9 69.6-16.5 90.5-0.882 33.5 4.39 53.2 4.39 53.2s-23-42.5-22.8-105c0.145-44.4 7.14-84.7 27.7-125 18.1-35 45-56 68.8-58.4 24.7-2.54 44.2 9.34 59.2 22.2 15.8 13.5 31.8 43.1 31.8 43.1l38-73.1z"/>
  <path d="m950 368s-16.7 29.9-27.1 41.4-29.1 31.8-52.1 42c-23 10.1-35.1 12-57.9 9.87-22.7-2.18-43.9-15.3-51.3-20.8-7.4-5.49-26.3-21.7-37-36.7-10.7-15.1-27.4-45.2-27.4-45.2s9.31 30.2 15.2 43.1c3.35 7.39 13.7 30 28.3 49.6 13.7 18.3 40.2 49.9 80.5 57 40.3 7.14 68-11 74.9-15.3 6.84-4.38 21.3-16.5 30.4-26.3 9.54-10.2 18.6-23.2 23.6-31 3.67-5.71 9.62-17.3 9.62-17.3l-9.62-50.2z"/>
</svg>